Coordinates
version=1
nRows=10
nColumns=40
inDegrees=yes

Units are S.I. units (second, meters, Newtons, ...)
Angles are in degrees.

endheader
time	pelvis_tilt	pelvis_list	pelvis_rotation	pelvis_tx	pelvis_ty	pelvis_tz	hip_flexion_r	hip_adduction_r	hip_rotation_r	knee_angle_r	knee_angle_r_beta	ankle_angle_r	subtalar_angle_r	mtp_angle_r	hip_flexion_l	hip_adduction_l	hip_rotation_l	knee_angle_l	knee_angle_l_beta	ankle_angle_l	subtalar_angle_l	mtp_angle_l	lumbar_extension	lumbar_bending	lumbar_rotation	arm_flex_r	arm_add_r	arm_rot_r	elbow_flex_r	pro_sup_r	wrist_flex_r	wrist_dev_r	arm_flex_l	arm_add_l	arm_rot_l	elbow_flex_l	pro_sup_l	wrist_flex_l	wrist_dev_l
     11.65000000	     -5.45492050	     -4.23217207	      0.37474865	      1.05627858	      0.92021019	      0.44819900	      7.36979641	     -8.29024768	    -10.09222118	     46.41509677	     46.41509677	     -0.92057458	    -15.41845681	    -16.44796593	     18.77122677	     -1.79013743	      0.22049445	     31.19735889	     31.19735889	     20.30346373	    -18.56986990	     13.35862440	     -9.40815560	      5.62099367	      4.43862499	     20.94332170	    -16.25182195	    -21.41898279	     27.13487111	     46.32527803	      0.00000000	      0.00000000	     15.18906436	    -17.97952879	      6.08806486	     59.17581834	     46.55744995	      0.00000000	      0.00000000
     11.66921429	     -5.49692255	     -4.29556032	     -0.05976735	      1.05544674	      0.91926051	      0.44699064	     10.05667695	     -8.42663973	     -9.43761191	     50.44228586	     50.44228586	     -1.54668279	    -17.55511089	    -13.88911780	     18.53837829	     -1.88008338	     -0.14423275	     31.49296809	     31.49296809	     20.79529812	    -18.56325393	     13.04195770	     -9.38335890	      5.82439909	      3.98715745	     17.68294475	    -15.97133830	    -21.66906679	     26.14438915	     46.36854446	      0.00000000	      0.00000000	     16.46650197	    -18.56590523	      5.30821429	     60.70894680	     46.65811454	      0.00000000	      0.00000000
     11.68842857	     -5.47136967	     -4.34823453	     -0.56261796	      1.05459066	      0.91855309	      0.44606784	     12.87983451	     -8.34480714	     -8.52495666	     54.70397099	     54.70397099	      0.78892831	    -17.84888407	     -3.49880289	     18.11614607	     -2.00680916	     -0.61640178	     31.59096899	     31.59096899	     21.13156037	    -18.49635901	     12.55792278	     -9.54981684	      6.03913437	      3.49191714	     14.27533861	    -15.61559990	    -21.99332725	     26.04502998	     46.39669608	      0.00000000	      0.00000000	     17.68748168	    -19.03744491	      4.24478126	     62.27227983	     46.80173581	      0.00000000	      0.00000000
     11.70764286	     -5.44815753	     -4.36010157	     -1.08617187	      1.05378003	      0.91805730	      0.44524471	     15.39717247	     -8.31304987	     -7.91989733	     58.02655376	     58.02655376	      2.37600919	    -18.44312153	      3.66066559	     17.64870606	     -2.08476553	     -1.10591772	     31.62021797	     31.62021797	     21.42643621	    -18.46322565	     12.08869738	     -9.67720281	      6.20855975	      3.29597783	     10.85218827	    -15.42334388	    -22.06943365	     25.29647082	     46.43561808	      0.00000000	      0.00000000	     19.31697500	    -19.38574572	      3.41253687	     63.28965041	     46.92127552	      0.00000000	      0.00000000
     11.72685714	     -5.36891959	     -4.24995666	     -1.60077246	      1.05308265	      0.91796769	      0.44450207	     17.39127964	     -8.58622073	     -7.82125181	     60.17473070	     60.17473070	      2.51029462	    -19.00840963	      4.35169365	     17.03936304	     -2.01970989	     -1.62792982	     31.49523859	     31.49523859	     21.71636947	    -18.42073015	     11.97658553	     -9.84997227	      6.27571793	      2.69198451	      8.00434793	    -15.05882577	    -22.13420770	     24.15726428	     46.46810260	      0.00000000	      0.00000000	     20.73030493	    -20.17812316	      2.75902481	     64.09121939	     46.99521292	      0.00000000	      0.00000000
     11.74607143	     -5.35774352	     -4.30696129	     -2.24602517	      1.05217701	      0.91831264	      0.44447205	     19.63087360	     -8.28136289	     -7.36918355	     62.09531418	     62.09531418	      5.21653096	    -19.12323242	     12.44086025	     16.43336864	     -2.21188157	     -2.24261405	     31.22961661	     31.22961661	     21.75821324	    -18.35777876	     11.45028874	    -10.06860762	      6.44043577	      3.03817431	      4.64474809	    -14.90407313	    -22.25815516	     23.54935185	     46.50633327	      0.00000000	      0.00000000	     22.30230227	    -20.00868690	      1.49077670	     65.55026106	     47.14131097	      0.00000000	      0.00000000
     11.76528571	     -5.34576684	     -4.30966957	     -2.88697867	      1.05141550	      0.91908227	      0.44479566	     21.42736553	     -8.01070786	     -7.14101533	     62.82386240	     62.82386240	      7.01514924	    -19.24575147	     15.41868558	     15.71669394	     -2.33955327	     -2.83277222	     30.75113097	     30.75113097	     21.69384628	    -18.31538480	     11.06141230	    -10.18605169	      6.57955491	      2.82773126	      1.86790771	    -14.54403137	    -22.31463246	     22.92486065	     46.55073313	      0.00000000	      0.00000000	     23.64108669	    -20.38336387	      0.38942913	     66.67021508	     47.26336428	      0.00000000	      0.00000000
     11.78450000	     -5.37967866	     -4.32903627	     -3.55829980	      1.05055632	      0.92032475	      0.44555175	     22.97788946	     -7.67743796	     -7.11798020	     62.53028580	     62.53028580	      8.08136775	    -19.31788505	     15.31000296	     14.99441054	     -2.49546092	     -3.44115869	     30.14600583	     30.14600583	     21.66413461	    -18.23997223	     11.15443944	    -10.27728042	      6.72231140	      2.49020853	     -0.38396226	    -14.12804083	    -22.35114911	     22.04601831	     46.57592381	      0.00000000	      0.00000000	     24.85302497	    -21.08702273	     -0.24811018	     67.48108397	     47.33077444	      0.00000000	      0.00000000
     11.80371429	     -5.50792731	     -4.44678288	     -4.27231417	      1.04951899	      0.92175720	      0.44686362	     24.43879737	     -7.05404535	     -7.07415903	     61.40344684	     61.40344684	      9.28179180	    -19.29608929	     15.08705402	     14.37424434	     -2.80442160	     -4.06317691	     29.54913554	     29.54913554	     21.57576274	    -18.16946433	     11.27819975	    -10.28722834	      6.93774503	      2.11968052	     -2.29877991	    -13.71384549	    -22.38942168	     21.34746223	     46.59394269	      0.00000000	      0.00000000	     26.01424624	    -21.89119861	     -0.85610156	     68.16507849	     47.39204607	      0.00000000	      0.00000000
     11.82292857	     -5.50682218	     -4.59626925	     -5.10075307	      1.04862521	      0.92385246	      0.44874140	     25.49590340	     -6.16769175	     -6.82382094	     59.36627129	     59.36627129	     10.44173040	    -19.20203444	     14.88109672	     13.35834214	     -3.15340054	     -4.82984369	     28.50225754	     28.50225754	     21.28402240	    -18.05740705	     11.28546768	    -10.57419885	      7.09064016	      2.82531144	     -4.65321223	    -13.36590832	    -22.43846823	     20.61719674	     46.61930683	      0.00000000	      0.00000000	     27.30106999	    -21.49625623	     -1.93575308	     70.21685788	     47.51025587	      0.00000000	      0.00000000
